<svg aria-roledescription="er" role="graphics-document document" viewBox="-18.699321746826172 0 1067.3287353515625 711" style="max-width: 1067.3287353515625px;" xmlns:xlink="http://www.w3.org/1999/xlink" xmlns="http://www.w3.org/2000/svg" width="100%" id="mermaid-1727025819524"><g><style>#mermaid-1727025819524{font-family:"trebuchet ms",verdana,arial,sans-serif;font-size:16px;fill:#ccc;}#mermaid-1727025819524 .error-icon{fill:#a44141;}#mermaid-1727025819524 .error-text{fill:#ddd;stroke:#ddd;}#mermaid-1727025819524 .edge-thickness-normal{stroke-width:1px;}#mermaid-1727025819524 .edge-thickness-thick{stroke-width:3.5px;}#mermaid-1727025819524 .edge-pattern-solid{stroke-dasharray:0;}#mermaid-1727025819524 .edge-thickness-invisible{stroke-width:0;fill:none;}#mermaid-1727025819524 .edge-pattern-dashed{stroke-dasharray:3;}#mermaid-1727025819524 .edge-pattern-dotted{stroke-dasharray:2;}#mermaid-1727025819524 .marker{fill:lightgrey;stroke:lightgrey;}#mermaid-1727025819524 .marker.cross{stroke:lightgrey;}#mermaid-1727025819524 svg{font-family:"trebuchet ms",verdana,arial,sans-serif;font-size:16px;}#mermaid-1727025819524 p{margin:0;}#mermaid-1727025819524 .entityBox{fill:#1f2020;stroke:#ccc;}#mermaid-1727025819524 .attributeBoxOdd{fill:hsl(0, 0%, 32%);stroke:#ccc;}#mermaid-1727025819524 .attributeBoxEven{fill:hsl(0, 0%, 22%);stroke:#ccc;}#mermaid-1727025819524 .relationshipLabelBox{fill:hsl(20, 1.5873015873%, 12.3529411765%);opacity:0.7;background-color:hsl(20, 1.5873015873%, 12.3529411765%);}#mermaid-1727025819524 .relationshipLabelBox rect{opacity:0.5;}#mermaid-1727025819524 .relationshipLine{stroke:lightgrey;}#mermaid-1727025819524 .entityTitleText{text-anchor:middle;font-size:18px;fill:#ccc;}#mermaid-1727025819524 #MD_PARENT_START{fill:#f5f5f5!important;stroke:lightgrey!important;stroke-width:1;}#mermaid-1727025819524 #MD_PARENT_END{fill:#f5f5f5!important;stroke:lightgrey!important;stroke-width:1;}#mermaid-1727025819524 :root{--mermaid-font-family:"trebuchet ms",verdana,arial,sans-serif;}</style><g></g><defs><marker orient="auto" markerHeight="240" markerWidth="190" refY="7" refX="0" id="MD_PARENT_START"><path d="M 18,7 L9,13 L1,7 L9,1 Z"></path></marker></defs><defs><marker orient="auto" markerHeight="28" markerWidth="20" refY="7" refX="19" id="MD_PARENT_END"><path d="M 18,7 L9,13 L1,7 L9,1 Z"></path></marker></defs><defs><marker orient="auto" markerHeight="18" markerWidth="18" refY="9" refX="0" id="ONLY_ONE_START"><path d="M9,0 L9,18 M15,0 L15,18" fill="none" stroke="gray"></path></marker></defs><defs><marker orient="auto" markerHeight="18" markerWidth="18" refY="9" refX="18" id="ONLY_ONE_END"><path d="M3,0 L3,18 M9,0 L9,18" fill="none" stroke="gray"></path></marker></defs><defs><marker orient="auto" markerHeight="18" markerWidth="30" refY="9" refX="0" id="ZERO_OR_ONE_START"><circle r="6" cy="9" cx="21" fill="white" stroke="gray"></circle><path d="M9,0 L9,18" fill="none" stroke="gray"></path></marker></defs><defs><marker orient="auto" markerHeight="18" markerWidth="30" refY="9" refX="30" id="ZERO_OR_ONE_END"><circle r="6" cy="9" cx="9" fill="white" stroke="gray"></circle><path d="M21,0 L21,18" fill="none" stroke="gray"></path></marker></defs><defs><marker orient="auto" markerHeight="36" markerWidth="45" refY="18" refX="18" id="ONE_OR_MORE_START"><path d="M0,18 Q 18,0 36,18 Q 18,36 0,18 M42,9 L42,27" fill="none" stroke="gray"></path></marker></defs><defs><marker orient="auto" markerHeight="36" markerWidth="45" refY="18" refX="27" id="ONE_OR_MORE_END"><path d="M3,9 L3,27 M9,18 Q27,0 45,18 Q27,36 9,18" fill="none" stroke="gray"></path></marker></defs><defs><marker orient="auto" markerHeight="36" markerWidth="57" refY="18" refX="18" id="ZERO_OR_MORE_START"><circle r="6" cy="18" cx="48" fill="white" stroke="gray"></circle><path d="M0,18 Q18,0 36,18 Q18,36 0,18" fill="none" stroke="gray"></path></marker></defs><defs><marker orient="auto" markerHeight="36" markerWidth="57" refY="18" refX="39" id="ZERO_OR_MORE_END"><circle r="6" cy="18" cx="9" fill="white" stroke="gray"></circle><path d="M21,18 Q39,0 57,18 Q39,36 21,18" fill="none" stroke="gray"></path></marker></defs><path style="stroke: gray; fill: none;" marker-start="url(#ZERO_OR_MORE_START)" marker-end="url(#ONLY_ONE_END)" d="M45.626,170L39.441,178.333C33.257,186.667,20.888,203.333,14.703,236C8.519,268.667,8.519,317.333,8.519,366C8.519,414.667,8.519,463.333,54.976,502.205C101.433,541.076,194.347,570.153,240.804,584.691L287.261,599.229" class="er relationshipLine"></path><path style="stroke: gray; fill: none;" marker-start="url(#ZERO_OR_MORE_START)" marker-end="url(#ONLY_ONE_END)" d="M182.574,148.429L200.722,160.357C218.87,172.286,255.167,196.143,295.064,222.444C334.962,248.746,378.461,277.492,400.21,291.865L421.959,306.238" class="er relationshipLine"></path><path style="stroke: gray; fill: none;" marker-start="url(#ZERO_OR_MORE_START)" marker-end="url(#ONLY_ONE_END)" d="M431.515,170L438.663,178.333C445.812,186.667,460.11,203.333,469.427,220C478.743,236.667,483.08,253.333,485.248,261.667L487.416,270" class="er relationshipLine"></path><path style="stroke: gray; fill: none;" marker-start="url(#ZERO_OR_MORE_START)" marker-end="url(#ONLY_ONE_END)" d="M282.574,155.185L267.389,165.987C252.204,176.79,221.833,198.395,206.648,233.531C191.463,268.667,191.463,317.333,191.463,366C191.463,414.667,191.463,463.333,207.429,497.66C223.396,531.986,255.329,551.972,271.295,561.965L287.261,571.958" class="er relationshipLine"></path><path style="stroke: gray; fill: none;" marker-start="url(#ZERO_OR_MORE_START)" marker-end="url(#ONLY_ONE_END)" d="M512.392,462L512.392,470.333C512.392,478.667,512.392,495.333,502.349,512C492.307,528.667,472.222,545.333,462.179,553.667L452.137,562" class="er relationshipLine"></path><path style="stroke: gray; fill: none;" marker-start="url(#ZERO_OR_MORE_START)" marker-end="url(#ONLY_ONE_END)" d="M616.992,159.5L609.894,169.583C602.797,179.667,588.602,199.833,577.965,218.25C567.328,236.667,560.249,253.333,556.709,261.667L553.169,270" class="er relationshipLine"></path><path style="stroke: gray; fill: none;" marker-start="url(#ZERO_OR_MORE_START)" marker-end="url(#ONLY_ONE_END)" d="M688.192,159.5L692.225,169.583C696.259,179.667,704.325,199.833,708.359,234.25C712.392,268.667,712.392,317.333,712.392,366C712.392,414.667,712.392,463.333,670.586,501.83C628.779,540.326,545.166,568.652,503.36,582.814L461.553,596.977" class="er relationshipLine"></path><g transform="translate(20,20 )" id="entity-Bid-0fe042f9-317f-5abb-8285-b7dc3a842c95"><rect height="150" width="162.57386779785156" y="0" x="0" class="er entityBox"></rect><text style="dominant-baseline: middle; text-anchor: middle; font-size: 12px;" transform="translate(81.28693389892578,12)" y="0" x="0" id="text-entity-Bid-0fe042f9-317f-5abb-8285-b7dc3a842c95" class="er entityLabel">Bid</text><rect height="21" width="49.4078369140625" y="24" x="0" class="er attributeBoxOdd"></rect><text style="dominant-baseline: middle; font-size: 10.2px;" transform="translate(5,34.5)" y="0" x="0" id="text-entity-Bid-0fe042f9-317f-5abb-8285-b7dc3a842c95-attr-1-type" class="er entityLabel">int</text><rect height="21" width="52.6357421875" y="24" x="49.4078369140625" class="er attributeBoxOdd"></rect><text style="dominant-baseline: middle; font-size: 10.2px;" transform="translate(54.4078369140625,34.5)" y="0" x="0" id="text-entity-Bid-0fe042f9-317f-5abb-8285-b7dc3a842c95-attr-1-name" class="er entityLabel">Id</text><rect height="21" width="60.53028869628906" y="24" x="102.0435791015625" class="er attributeBoxOdd"></rect><text style="dominant-baseline: middle; font-size: 10.2px;" transform="translate(107.0435791015625,34.5)" y="0" x="0" id="text-entity-Bid-0fe042f9-317f-5abb-8285-b7dc3a842c95-attr-1-comment" class="er entityLabel">NOT NULL</text><rect height="21" width="49.4078369140625" y="45" x="0" class="er attributeBoxEven"></rect><text style="dominant-baseline: middle; font-size: 10.2px;" transform="translate(5,55.5)" y="0" x="0" id="text-entity-Bid-0fe042f9-317f-5abb-8285-b7dc3a842c95-attr-2-type" class="er entityLabel">decimal</text><rect height="21" width="52.6357421875" y="45" x="49.4078369140625" class="er attributeBoxEven"></rect><text style="dominant-baseline: middle; font-size: 10.2px;" transform="translate(54.4078369140625,55.5)" y="0" x="0" id="text-entity-Bid-0fe042f9-317f-5abb-8285-b7dc3a842c95-attr-2-name" class="er entityLabel">Amount</text><rect height="21" width="60.53028869628906" y="45" x="102.0435791015625" class="er attributeBoxEven"></rect><text style="dominant-baseline: middle; font-size: 10.2px;" transform="translate(107.0435791015625,55.5)" y="0" x="0" id="text-entity-Bid-0fe042f9-317f-5abb-8285-b7dc3a842c95-attr-2-comment" class="er entityLabel">NOT NULL</text><rect height="21" width="49.4078369140625" y="66" x="0" class="er attributeBoxOdd"></rect><text style="dominant-baseline: middle; font-size: 10.2px;" transform="translate(5,76.5)" y="0" x="0" id="text-entity-Bid-0fe042f9-317f-5abb-8285-b7dc3a842c95-attr-3-type" class="er entityLabel">datetime</text><rect height="21" width="52.6357421875" y="66" x="49.4078369140625" class="er attributeBoxOdd"></rect><text style="dominant-baseline: middle; font-size: 10.2px;" transform="translate(54.4078369140625,76.5)" y="0" x="0" id="text-entity-Bid-0fe042f9-317f-5abb-8285-b7dc3a842c95-attr-3-name" class="er entityLabel">BidTime</text><rect height="21" width="60.53028869628906" y="66" x="102.0435791015625" class="er attributeBoxOdd"></rect><text style="dominant-baseline: middle; font-size: 10.2px;" transform="translate(107.0435791015625,76.5)" y="0" x="0" id="text-entity-Bid-0fe042f9-317f-5abb-8285-b7dc3a842c95-attr-3-comment" class="er entityLabel">NOT NULL</text><rect height="21" width="49.4078369140625" y="87" x="0" class="er attributeBoxEven"></rect><text style="dominant-baseline: middle; font-size: 10.2px;" transform="translate(5,97.5)" y="0" x="0" id="text-entity-Bid-0fe042f9-317f-5abb-8285-b7dc3a842c95-attr-4-type" class="er entityLabel">int</text><rect height="21" width="52.6357421875" y="87" x="49.4078369140625" class="er attributeBoxEven"></rect><text style="dominant-baseline: middle; font-size: 10.2px;" transform="translate(54.4078369140625,97.5)" y="0" x="0" id="text-entity-Bid-0fe042f9-317f-5abb-8285-b7dc3a842c95-attr-4-name" class="er entityLabel">BidderId</text><rect height="21" width="60.53028869628906" y="87" x="102.0435791015625" class="er attributeBoxEven"></rect><text style="dominant-baseline: middle; font-size: 10.2px;" transform="translate(107.0435791015625,97.5)" y="0" x="0" id="text-entity-Bid-0fe042f9-317f-5abb-8285-b7dc3a842c95-attr-4-comment" class="er entityLabel">NOT NULL</text><rect height="21" width="49.4078369140625" y="108" x="0" class="er attributeBoxOdd"></rect><text style="dominant-baseline: middle; font-size: 10.2px;" transform="translate(5,118.5)" y="0" x="0" id="text-entity-Bid-0fe042f9-317f-5abb-8285-b7dc3a842c95-attr-5-type" class="er entityLabel">int</text><rect height="21" width="52.6357421875" y="108" x="49.4078369140625" class="er attributeBoxOdd"></rect><text style="dominant-baseline: middle; font-size: 10.2px;" transform="translate(54.4078369140625,118.5)" y="0" x="0" id="text-entity-Bid-0fe042f9-317f-5abb-8285-b7dc3a842c95-attr-5-name" class="er entityLabel">ItemId</text><rect height="21" width="60.53028869628906" y="108" x="102.0435791015625" class="er attributeBoxOdd"></rect><text style="dominant-baseline: middle; font-size: 10.2px;" transform="translate(107.0435791015625,118.5)" y="0" x="0" id="text-entity-Bid-0fe042f9-317f-5abb-8285-b7dc3a842c95-attr-5-comment" class="er entityLabel">NOT NULL</text><rect height="21" width="49.4078369140625" y="129" x="0" class="er attributeBoxEven"></rect><text style="dominant-baseline: middle; font-size: 10.2px;" transform="translate(5,139.5)" y="0" x="0" id="text-entity-Bid-0fe042f9-317f-5abb-8285-b7dc3a842c95-attr-6-type" class="er entityLabel">bool</text><rect height="21" width="52.6357421875" y="129" x="49.4078369140625" class="er attributeBoxEven"></rect><text style="dominant-baseline: middle; font-size: 10.2px;" transform="translate(54.4078369140625,139.5)" y="0" x="0" id="text-entity-Bid-0fe042f9-317f-5abb-8285-b7dc3a842c95-attr-6-name" class="er entityLabel">IsHighest</text><rect height="21" width="60.53028869628906" y="129" x="102.0435791015625" class="er attributeBoxEven"></rect><text style="dominant-baseline: middle; font-size: 10.2px;" transform="translate(107.0435791015625,139.5)" y="0" x="0" id="text-entity-Bid-0fe042f9-317f-5abb-8285-b7dc3a842c95-attr-6-comment" class="er entityLabel">NOT NULL</text></g><g transform="translate(287.2614631652832,562 )" id="entity-User-818c511a-4a32-5484-ba70-875d765a9175"><rect height="129" width="174.29173278808594" y="0" x="0" class="er entityBox"></rect><text style="dominant-baseline: middle; text-anchor: middle; font-size: 12px;" transform="translate(87.14586639404297,12)" y="0" x="0" id="text-entity-User-818c511a-4a32-5484-ba70-875d765a9175" class="er entityLabel">User</text><rect height="21" width="35.245819091796875" y="24" x="0" class="er attributeBoxOdd"></rect><text style="dominant-baseline: middle; font-size: 10.2px;" transform="translate(5,34.5)" y="0" x="0" id="text-entity-User-818c511a-4a32-5484-ba70-875d765a9175-attr-1-type" class="er entityLabel">int</text><rect height="21" width="78.515625" y="24" x="35.245819091796875" class="er attributeBoxOdd"></rect><text style="dominant-baseline: middle; font-size: 10.2px;" transform="translate(40.245819091796875,34.5)" y="0" x="0" id="text-entity-User-818c511a-4a32-5484-ba70-875d765a9175-attr-1-name" class="er entityLabel">Id</text><rect height="21" width="60.53028869628906" y="24" x="113.76144409179688" class="er attributeBoxOdd"></rect><text style="dominant-baseline: middle; font-size: 10.2px;" transform="translate(118.76144409179688,34.5)" y="0" x="0" id="text-entity-User-818c511a-4a32-5484-ba70-875d765a9175-attr-1-comment" class="er entityLabel">NOT NULL</text><rect height="21" width="35.245819091796875" y="45" x="0" class="er attributeBoxEven"></rect><text style="dominant-baseline: middle; font-size: 10.2px;" transform="translate(5,55.5)" y="0" x="0" id="text-entity-User-818c511a-4a32-5484-ba70-875d765a9175-attr-2-type" class="er entityLabel">string</text><rect height="21" width="78.515625" y="45" x="35.245819091796875" class="er attributeBoxEven"></rect><text style="dominant-baseline: middle; font-size: 10.2px;" transform="translate(40.245819091796875,55.5)" y="0" x="0" id="text-entity-User-818c511a-4a32-5484-ba70-875d765a9175-attr-2-name" class="er entityLabel">UserName</text><rect height="21" width="60.53028869628906" y="45" x="113.76144409179688" class="er attributeBoxEven"></rect><text style="dominant-baseline: middle; font-size: 10.2px;" transform="translate(118.76144409179688,55.5)" y="0" x="0" id="text-entity-User-818c511a-4a32-5484-ba70-875d765a9175-attr-2-comment" class="er entityLabel">NOT NULL</text><rect height="21" width="35.245819091796875" y="66" x="0" class="er attributeBoxOdd"></rect><text style="dominant-baseline: middle; font-size: 10.2px;" transform="translate(5,76.5)" y="0" x="0" id="text-entity-User-818c511a-4a32-5484-ba70-875d765a9175-attr-3-type" class="er entityLabel">string</text><rect height="21" width="78.515625" y="66" x="35.245819091796875" class="er attributeBoxOdd"></rect><text style="dominant-baseline: middle; font-size: 10.2px;" transform="translate(40.245819091796875,76.5)" y="0" x="0" id="text-entity-User-818c511a-4a32-5484-ba70-875d765a9175-attr-3-name" class="er entityLabel">Email</text><rect height="21" width="60.53028869628906" y="66" x="113.76144409179688" class="er attributeBoxOdd"></rect><text style="dominant-baseline: middle; font-size: 10.2px;" transform="translate(118.76144409179688,76.5)" y="0" x="0" id="text-entity-User-818c511a-4a32-5484-ba70-875d765a9175-attr-3-comment" class="er entityLabel">NOT NULL</text><rect height="21" width="35.245819091796875" y="87" x="0" class="er attributeBoxEven"></rect><text style="dominant-baseline: middle; font-size: 10.2px;" transform="translate(5,97.5)" y="0" x="0" id="text-entity-User-818c511a-4a32-5484-ba70-875d765a9175-attr-4-type" class="er entityLabel">string</text><rect height="21" width="78.515625" y="87" x="35.245819091796875" class="er attributeBoxEven"></rect><text style="dominant-baseline: middle; font-size: 10.2px;" transform="translate(40.245819091796875,97.5)" y="0" x="0" id="text-entity-User-818c511a-4a32-5484-ba70-875d765a9175-attr-4-name" class="er entityLabel">PasswordHash</text><rect height="21" width="60.53028869628906" y="87" x="113.76144409179688" class="er attributeBoxEven"></rect><text style="dominant-baseline: middle; font-size: 10.2px;" transform="translate(118.76144409179688,97.5)" y="0" x="0" id="text-entity-User-818c511a-4a32-5484-ba70-875d765a9175-attr-4-comment" class="er entityLabel">NOT NULL</text><rect height="21" width="35.245819091796875" y="108" x="0" class="er attributeBoxOdd"></rect><text style="dominant-baseline: middle; font-size: 10.2px;" transform="translate(5,118.5)" y="0" x="0" id="text-entity-User-818c511a-4a32-5484-ba70-875d765a9175-attr-5-type" class="er entityLabel">string</text><rect height="21" width="78.515625" y="108" x="35.245819091796875" class="er attributeBoxOdd"></rect><text style="dominant-baseline: middle; font-size: 10.2px;" transform="translate(40.245819091796875,118.5)" y="0" x="0" id="text-entity-User-818c511a-4a32-5484-ba70-875d765a9175-attr-5-name" class="er entityLabel">Role</text><rect height="21" width="60.53028869628906" y="108" x="113.76144409179688" class="er attributeBoxOdd"></rect><text style="dominant-baseline: middle; font-size: 10.2px;" transform="translate(118.76144409179688,118.5)" y="0" x="0" id="text-entity-User-818c511a-4a32-5484-ba70-875d765a9175-attr-5-comment" class="er entityLabel">NOT NULL</text></g><g transform="translate(421.95947647094727,270 )" id="entity-Item-8a1f935b-4333-55f4-bdb2-98b6af61c805"><rect height="192" width="180.8650665283203" y="0" x="0" class="er entityBox"></rect><text style="dominant-baseline: middle; text-anchor: middle; font-size: 12px;" transform="translate(90.43253326416016,12)" y="0" x="0" id="text-entity-Item-8a1f935b-4333-55f4-bdb2-98b6af61c805" class="er entityLabel">Item</text><rect height="21" width="49.4078369140625" y="24" x="0" class="er attributeBoxOdd"></rect><text style="dominant-baseline: middle; font-size: 10.2px;" transform="translate(5,34.5)" y="0" x="0" id="text-entity-Item-8a1f935b-4333-55f4-bdb2-98b6af61c805-attr-1-type" class="er entityLabel">int</text><rect height="21" width="70.92694091796875" y="24" x="49.4078369140625" class="er attributeBoxOdd"></rect><text style="dominant-baseline: middle; font-size: 10.2px;" transform="translate(54.4078369140625,34.5)" y="0" x="0" id="text-entity-Item-8a1f935b-4333-55f4-bdb2-98b6af61c805-attr-1-name" class="er entityLabel">Id</text><rect height="21" width="60.53028869628906" y="24" x="120.33477783203125" class="er attributeBoxOdd"></rect><text style="dominant-baseline: middle; font-size: 10.2px;" transform="translate(125.33477783203125,34.5)" y="0" x="0" id="text-entity-Item-8a1f935b-4333-55f4-bdb2-98b6af61c805-attr-1-comment" class="er entityLabel">NOT NULL</text><rect height="21" width="49.4078369140625" y="45" x="0" class="er attributeBoxEven"></rect><text style="dominant-baseline: middle; font-size: 10.2px;" transform="translate(5,55.5)" y="0" x="0" id="text-entity-Item-8a1f935b-4333-55f4-bdb2-98b6af61c805-attr-2-type" class="er entityLabel">string</text><rect height="21" width="70.92694091796875" y="45" x="49.4078369140625" class="er attributeBoxEven"></rect><text style="dominant-baseline: middle; font-size: 10.2px;" transform="translate(54.4078369140625,55.5)" y="0" x="0" id="text-entity-Item-8a1f935b-4333-55f4-bdb2-98b6af61c805-attr-2-name" class="er entityLabel">Title</text><rect height="21" width="60.53028869628906" y="45" x="120.33477783203125" class="er attributeBoxEven"></rect><text style="dominant-baseline: middle; font-size: 10.2px;" transform="translate(125.33477783203125,55.5)" y="0" x="0" id="text-entity-Item-8a1f935b-4333-55f4-bdb2-98b6af61c805-attr-2-comment" class="er entityLabel">NOT NULL</text><rect height="21" width="49.4078369140625" y="66" x="0" class="er attributeBoxOdd"></rect><text style="dominant-baseline: middle; font-size: 10.2px;" transform="translate(5,76.5)" y="0" x="0" id="text-entity-Item-8a1f935b-4333-55f4-bdb2-98b6af61c805-attr-3-type" class="er entityLabel">string</text><rect height="21" width="70.92694091796875" y="66" x="49.4078369140625" class="er attributeBoxOdd"></rect><text style="dominant-baseline: middle; font-size: 10.2px;" transform="translate(54.4078369140625,76.5)" y="0" x="0" id="text-entity-Item-8a1f935b-4333-55f4-bdb2-98b6af61c805-attr-3-name" class="er entityLabel">Description</text><rect height="21" width="60.53028869628906" y="66" x="120.33477783203125" class="er attributeBoxOdd"></rect><text style="dominant-baseline: middle; font-size: 10.2px;" transform="translate(125.33477783203125,76.5)" y="0" x="0" id="text-entity-Item-8a1f935b-4333-55f4-bdb2-98b6af61c805-attr-3-comment" class="er entityLabel">NOT NULL</text><rect height="21" width="49.4078369140625" y="87" x="0" class="er attributeBoxEven"></rect><text style="dominant-baseline: middle; font-size: 10.2px;" transform="translate(5,97.5)" y="0" x="0" id="text-entity-Item-8a1f935b-4333-55f4-bdb2-98b6af61c805-attr-4-type" class="er entityLabel">decimal</text><rect height="21" width="70.92694091796875" y="87" x="49.4078369140625" class="er attributeBoxEven"></rect><text style="dominant-baseline: middle; font-size: 10.2px;" transform="translate(54.4078369140625,97.5)" y="0" x="0" id="text-entity-Item-8a1f935b-4333-55f4-bdb2-98b6af61c805-attr-4-name" class="er entityLabel">StartingPrice</text><rect height="21" width="60.53028869628906" y="87" x="120.33477783203125" class="er attributeBoxEven"></rect><text style="dominant-baseline: middle; font-size: 10.2px;" transform="translate(125.33477783203125,97.5)" y="0" x="0" id="text-entity-Item-8a1f935b-4333-55f4-bdb2-98b6af61c805-attr-4-comment" class="er entityLabel">NOT NULL</text><rect height="21" width="49.4078369140625" y="108" x="0" class="er attributeBoxOdd"></rect><text style="dominant-baseline: middle; font-size: 10.2px;" transform="translate(5,118.5)" y="0" x="0" id="text-entity-Item-8a1f935b-4333-55f4-bdb2-98b6af61c805-attr-5-type" class="er entityLabel">datetime</text><rect height="21" width="70.92694091796875" y="108" x="49.4078369140625" class="er attributeBoxOdd"></rect><text style="dominant-baseline: middle; font-size: 10.2px;" transform="translate(54.4078369140625,118.5)" y="0" x="0" id="text-entity-Item-8a1f935b-4333-55f4-bdb2-98b6af61c805-attr-5-name" class="er entityLabel">StartTime</text><rect height="21" width="60.53028869628906" y="108" x="120.33477783203125" class="er attributeBoxOdd"></rect><text style="dominant-baseline: middle; font-size: 10.2px;" transform="translate(125.33477783203125,118.5)" y="0" x="0" id="text-entity-Item-8a1f935b-4333-55f4-bdb2-98b6af61c805-attr-5-comment" class="er entityLabel">NOT NULL</text><rect height="21" width="49.4078369140625" y="129" x="0" class="er attributeBoxEven"></rect><text style="dominant-baseline: middle; font-size: 10.2px;" transform="translate(5,139.5)" y="0" x="0" id="text-entity-Item-8a1f935b-4333-55f4-bdb2-98b6af61c805-attr-6-type" class="er entityLabel">datetime</text><rect height="21" width="70.92694091796875" y="129" x="49.4078369140625" class="er attributeBoxEven"></rect><text style="dominant-baseline: middle; font-size: 10.2px;" transform="translate(54.4078369140625,139.5)" y="0" x="0" id="text-entity-Item-8a1f935b-4333-55f4-bdb2-98b6af61c805-attr-6-name" class="er entityLabel">EndTime</text><rect height="21" width="60.53028869628906" y="129" x="120.33477783203125" class="er attributeBoxEven"></rect><text style="dominant-baseline: middle; font-size: 10.2px;" transform="translate(125.33477783203125,139.5)" y="0" x="0" id="text-entity-Item-8a1f935b-4333-55f4-bdb2-98b6af61c805-attr-6-comment" class="er entityLabel">NOT NULL</text><rect height="21" width="49.4078369140625" y="150" x="0" class="er attributeBoxOdd"></rect><text style="dominant-baseline: middle; font-size: 10.2px;" transform="translate(5,160.5)" y="0" x="0" id="text-entity-Item-8a1f935b-4333-55f4-bdb2-98b6af61c805-attr-7-type" class="er entityLabel">bool</text><rect height="21" width="70.92694091796875" y="150" x="49.4078369140625" class="er attributeBoxOdd"></rect><text style="dominant-baseline: middle; font-size: 10.2px;" transform="translate(54.4078369140625,160.5)" y="0" x="0" id="text-entity-Item-8a1f935b-4333-55f4-bdb2-98b6af61c805-attr-7-name" class="er entityLabel">IsAuctionLive</text><rect height="21" width="60.53028869628906" y="150" x="120.33477783203125" class="er attributeBoxOdd"></rect><text style="dominant-baseline: middle; font-size: 10.2px;" transform="translate(125.33477783203125,160.5)" y="0" x="0" id="text-entity-Item-8a1f935b-4333-55f4-bdb2-98b6af61c805-attr-7-comment" class="er entityLabel">NOT NULL</text><rect height="21" width="49.4078369140625" y="171" x="0" class="er attributeBoxEven"></rect><text style="dominant-baseline: middle; font-size: 10.2px;" transform="translate(5,181.5)" y="0" x="0" id="text-entity-Item-8a1f935b-4333-55f4-bdb2-98b6af61c805-attr-8-type" class="er entityLabel">int</text><rect height="21" width="70.92694091796875" y="171" x="49.4078369140625" class="er attributeBoxEven"></rect><text style="dominant-baseline: middle; font-size: 10.2px;" transform="translate(54.4078369140625,181.5)" y="0" x="0" id="text-entity-Item-8a1f935b-4333-55f4-bdb2-98b6af61c805-attr-8-name" class="er entityLabel">SellerId</text><rect height="21" width="60.53028869628906" y="171" x="120.33477783203125" class="er attributeBoxEven"></rect><text style="dominant-baseline: middle; font-size: 10.2px;" transform="translate(125.33477783203125,181.5)" y="0" x="0" id="text-entity-Item-8a1f935b-4333-55f4-bdb2-98b6af61c805-attr-8-comment" class="er entityLabel">NOT NULL</text></g><g transform="translate(282.57386779785156,20 )" id="entity-Feedback-d9682f37-14b0-5d2c-b505-1d02e352676c"><rect height="150" width="169.20375061035156" y="0" x="0" class="er entityBox"></rect><text style="dominant-baseline: middle; text-anchor: middle; font-size: 12px;" transform="translate(84.60187530517578,12)" y="0" x="0" id="text-entity-Feedback-d9682f37-14b0-5d2c-b505-1d02e352676c" class="er entityLabel">Feedback</text><rect height="21" width="49.4078369140625" y="24" x="0" class="er attributeBoxOdd"></rect><text style="dominant-baseline: middle; font-size: 10.2px;" transform="translate(5,34.5)" y="0" x="0" id="text-entity-Feedback-d9682f37-14b0-5d2c-b505-1d02e352676c-attr-1-type" class="er entityLabel">int</text><rect height="21" width="59.265625" y="24" x="49.4078369140625" class="er attributeBoxOdd"></rect><text style="dominant-baseline: middle; font-size: 10.2px;" transform="translate(54.4078369140625,34.5)" y="0" x="0" id="text-entity-Feedback-d9682f37-14b0-5d2c-b505-1d02e352676c-attr-1-name" class="er entityLabel">Id</text><rect height="21" width="60.53028869628906" y="24" x="108.6734619140625" class="er attributeBoxOdd"></rect><text style="dominant-baseline: middle; font-size: 10.2px;" transform="translate(113.6734619140625,34.5)" y="0" x="0" id="text-entity-Feedback-d9682f37-14b0-5d2c-b505-1d02e352676c-attr-1-comment" class="er entityLabel">NOT NULL</text><rect height="21" width="49.4078369140625" y="45" x="0" class="er attributeBoxEven"></rect><text style="dominant-baseline: middle; font-size: 10.2px;" transform="translate(5,55.5)" y="0" x="0" id="text-entity-Feedback-d9682f37-14b0-5d2c-b505-1d02e352676c-attr-2-type" class="er entityLabel">string</text><rect height="21" width="59.265625" y="45" x="49.4078369140625" class="er attributeBoxEven"></rect><text style="dominant-baseline: middle; font-size: 10.2px;" transform="translate(54.4078369140625,55.5)" y="0" x="0" id="text-entity-Feedback-d9682f37-14b0-5d2c-b505-1d02e352676c-attr-2-name" class="er entityLabel">Comments</text><rect height="21" width="60.53028869628906" y="45" x="108.6734619140625" class="er attributeBoxEven"></rect><text style="dominant-baseline: middle; font-size: 10.2px;" transform="translate(113.6734619140625,55.5)" y="0" x="0" id="text-entity-Feedback-d9682f37-14b0-5d2c-b505-1d02e352676c-attr-2-comment" class="er entityLabel">NOT NULL</text><rect height="21" width="49.4078369140625" y="66" x="0" class="er attributeBoxOdd"></rect><text style="dominant-baseline: middle; font-size: 10.2px;" transform="translate(5,76.5)" y="0" x="0" id="text-entity-Feedback-d9682f37-14b0-5d2c-b505-1d02e352676c-attr-3-type" class="er entityLabel">int</text><rect height="21" width="59.265625" y="66" x="49.4078369140625" class="er attributeBoxOdd"></rect><text style="dominant-baseline: middle; font-size: 10.2px;" transform="translate(54.4078369140625,76.5)" y="0" x="0" id="text-entity-Feedback-d9682f37-14b0-5d2c-b505-1d02e352676c-attr-3-name" class="er entityLabel">Rating</text><rect height="21" width="60.53028869628906" y="66" x="108.6734619140625" class="er attributeBoxOdd"></rect><text style="dominant-baseline: middle; font-size: 10.2px;" transform="translate(113.6734619140625,76.5)" y="0" x="0" id="text-entity-Feedback-d9682f37-14b0-5d2c-b505-1d02e352676c-attr-3-comment" class="er entityLabel">NOT NULL</text><rect height="21" width="49.4078369140625" y="87" x="0" class="er attributeBoxEven"></rect><text style="dominant-baseline: middle; font-size: 10.2px;" transform="translate(5,97.5)" y="0" x="0" id="text-entity-Feedback-d9682f37-14b0-5d2c-b505-1d02e352676c-attr-4-type" class="er entityLabel">int</text><rect height="21" width="59.265625" y="87" x="49.4078369140625" class="er attributeBoxEven"></rect><text style="dominant-baseline: middle; font-size: 10.2px;" transform="translate(54.4078369140625,97.5)" y="0" x="0" id="text-entity-Feedback-d9682f37-14b0-5d2c-b505-1d02e352676c-attr-4-name" class="er entityLabel">UserId</text><rect height="21" width="60.53028869628906" y="87" x="108.6734619140625" class="er attributeBoxEven"></rect><text style="dominant-baseline: middle; font-size: 10.2px;" transform="translate(113.6734619140625,97.5)" y="0" x="0" id="text-entity-Feedback-d9682f37-14b0-5d2c-b505-1d02e352676c-attr-4-comment" class="er entityLabel">NOT NULL</text><rect height="21" width="49.4078369140625" y="108" x="0" class="er attributeBoxOdd"></rect><text style="dominant-baseline: middle; font-size: 10.2px;" transform="translate(5,118.5)" y="0" x="0" id="text-entity-Feedback-d9682f37-14b0-5d2c-b505-1d02e352676c-attr-5-type" class="er entityLabel">int</text><rect height="21" width="59.265625" y="108" x="49.4078369140625" class="er attributeBoxOdd"></rect><text style="dominant-baseline: middle; font-size: 10.2px;" transform="translate(54.4078369140625,118.5)" y="0" x="0" id="text-entity-Feedback-d9682f37-14b0-5d2c-b505-1d02e352676c-attr-5-name" class="er entityLabel">ItemId</text><rect height="21" width="60.53028869628906" y="108" x="108.6734619140625" class="er attributeBoxOdd"></rect><text style="dominant-baseline: middle; font-size: 10.2px;" transform="translate(113.6734619140625,118.5)" y="0" x="0" id="text-entity-Feedback-d9682f37-14b0-5d2c-b505-1d02e352676c-attr-5-comment" class="er entityLabel">NOT NULL</text><rect height="21" width="49.4078369140625" y="129" x="0" class="er attributeBoxEven"></rect><text style="dominant-baseline: middle; font-size: 10.2px;" transform="translate(5,139.5)" y="0" x="0" id="text-entity-Feedback-d9682f37-14b0-5d2c-b505-1d02e352676c-attr-6-type" class="er entityLabel">datetime</text><rect height="21" width="59.265625" y="129" x="49.4078369140625" class="er attributeBoxEven"></rect><text style="dominant-baseline: middle; font-size: 10.2px;" transform="translate(54.4078369140625,139.5)" y="0" x="0" id="text-entity-Feedback-d9682f37-14b0-5d2c-b505-1d02e352676c-attr-6-name" class="er entityLabel">DateGiven</text><rect height="21" width="60.53028869628906" y="129" x="108.6734619140625" class="er attributeBoxEven"></rect><text style="dominant-baseline: middle; font-size: 10.2px;" transform="translate(113.6734619140625,139.5)" y="0" x="0" id="text-entity-Feedback-d9682f37-14b0-5d2c-b505-1d02e352676c-attr-6-comment" class="er entityLabel">NOT NULL</text></g><g transform="translate(571.0245246887207,30.5 )" id="entity-Payment-78272184-28d6-5c12-ad2c-3811a6228073"><rect height="129" width="182.73497009277344" y="0" x="0" class="er entityBox"></rect><text style="dominant-baseline: middle; text-anchor: middle; font-size: 12px;" transform="translate(91.36748504638672,12)" y="0" x="0" id="text-entity-Payment-78272184-28d6-5c12-ad2c-3811a6228073" class="er entityLabel">Payment</text><rect height="21" width="49.4078369140625" y="24" x="0" class="er attributeBoxOdd"></rect><text style="dominant-baseline: middle; font-size: 10.2px;" transform="translate(5,34.5)" y="0" x="0" id="text-entity-Payment-78272184-28d6-5c12-ad2c-3811a6228073-attr-1-type" class="er entityLabel">int</text><rect height="21" width="72.79684448242188" y="24" x="49.4078369140625" class="er attributeBoxOdd"></rect><text style="dominant-baseline: middle; font-size: 10.2px;" transform="translate(54.4078369140625,34.5)" y="0" x="0" id="text-entity-Payment-78272184-28d6-5c12-ad2c-3811a6228073-attr-1-name" class="er entityLabel">Id</text><rect height="21" width="60.53028869628906" y="24" x="122.20468139648438" class="er attributeBoxOdd"></rect><text style="dominant-baseline: middle; font-size: 10.2px;" transform="translate(127.20468139648438,34.5)" y="0" x="0" id="text-entity-Payment-78272184-28d6-5c12-ad2c-3811a6228073-attr-1-comment" class="er entityLabel">NOT NULL</text><rect height="21" width="49.4078369140625" y="45" x="0" class="er attributeBoxEven"></rect><text style="dominant-baseline: middle; font-size: 10.2px;" transform="translate(5,55.5)" y="0" x="0" id="text-entity-Payment-78272184-28d6-5c12-ad2c-3811a6228073-attr-2-type" class="er entityLabel">decimal</text><rect height="21" width="72.79684448242188" y="45" x="49.4078369140625" class="er attributeBoxEven"></rect><text style="dominant-baseline: middle; font-size: 10.2px;" transform="translate(54.4078369140625,55.5)" y="0" x="0" id="text-entity-Payment-78272184-28d6-5c12-ad2c-3811a6228073-attr-2-name" class="er entityLabel">Amount</text><rect height="21" width="60.53028869628906" y="45" x="122.20468139648438" class="er attributeBoxEven"></rect><text style="dominant-baseline: middle; font-size: 10.2px;" transform="translate(127.20468139648438,55.5)" y="0" x="0" id="text-entity-Payment-78272184-28d6-5c12-ad2c-3811a6228073-attr-2-comment" class="er entityLabel">NOT NULL</text><rect height="21" width="49.4078369140625" y="66" x="0" class="er attributeBoxOdd"></rect><text style="dominant-baseline: middle; font-size: 10.2px;" transform="translate(5,76.5)" y="0" x="0" id="text-entity-Payment-78272184-28d6-5c12-ad2c-3811a6228073-attr-3-type" class="er entityLabel">datetime</text><rect height="21" width="72.79684448242188" y="66" x="49.4078369140625" class="er attributeBoxOdd"></rect><text style="dominant-baseline: middle; font-size: 10.2px;" transform="translate(54.4078369140625,76.5)" y="0" x="0" id="text-entity-Payment-78272184-28d6-5c12-ad2c-3811a6228073-attr-3-name" class="er entityLabel">PaymentTime</text><rect height="21" width="60.53028869628906" y="66" x="122.20468139648438" class="er attributeBoxOdd"></rect><text style="dominant-baseline: middle; font-size: 10.2px;" transform="translate(127.20468139648438,76.5)" y="0" x="0" id="text-entity-Payment-78272184-28d6-5c12-ad2c-3811a6228073-attr-3-comment" class="er entityLabel">NOT NULL</text><rect height="21" width="49.4078369140625" y="87" x="0" class="er attributeBoxEven"></rect><text style="dominant-baseline: middle; font-size: 10.2px;" transform="translate(5,97.5)" y="0" x="0" id="text-entity-Payment-78272184-28d6-5c12-ad2c-3811a6228073-attr-4-type" class="er entityLabel">int</text><rect height="21" width="72.79684448242188" y="87" x="49.4078369140625" class="er attributeBoxEven"></rect><text style="dominant-baseline: middle; font-size: 10.2px;" transform="translate(54.4078369140625,97.5)" y="0" x="0" id="text-entity-Payment-78272184-28d6-5c12-ad2c-3811a6228073-attr-4-name" class="er entityLabel">PayerId</text><rect height="21" width="60.53028869628906" y="87" x="122.20468139648438" class="er attributeBoxEven"></rect><text style="dominant-baseline: middle; font-size: 10.2px;" transform="translate(127.20468139648438,97.5)" y="0" x="0" id="text-entity-Payment-78272184-28d6-5c12-ad2c-3811a6228073-attr-4-comment" class="er entityLabel">NOT NULL</text><rect height="21" width="49.4078369140625" y="108" x="0" class="er attributeBoxOdd"></rect><text style="dominant-baseline: middle; font-size: 10.2px;" transform="translate(5,118.5)" y="0" x="0" id="text-entity-Payment-78272184-28d6-5c12-ad2c-3811a6228073-attr-5-type" class="er entityLabel">int</text><rect height="21" width="72.79684448242188" y="108" x="49.4078369140625" class="er attributeBoxOdd"></rect><text style="dominant-baseline: middle; font-size: 10.2px;" transform="translate(54.4078369140625,118.5)" y="0" x="0" id="text-entity-Payment-78272184-28d6-5c12-ad2c-3811a6228073-attr-5-name" class="er entityLabel">ItemId</text><rect height="21" width="60.53028869628906" y="108" x="122.20468139648438" class="er attributeBoxOdd"></rect><text style="dominant-baseline: middle; font-size: 10.2px;" transform="translate(127.20468139648438,118.5)" y="0" x="0" id="text-entity-Payment-78272184-28d6-5c12-ad2c-3811a6228073-attr-5-comment" class="er entityLabel">NOT NULL</text></g><g transform="translate(853.7594947814941,62 )" id="entity-EFMigrationsHistory-ecc788db-892f-5eca-8792-83d03ed1a2b0"><rect height="66" width="174.86985778808594" y="0" x="0" class="er entityBox"></rect><text style="dominant-baseline: middle; text-anchor: middle; font-size: 12px;" transform="translate(87.43492889404297,12)" y="0" x="0" id="text-entity-EFMigrationsHistory-ecc788db-892f-5eca-8792-83d03ed1a2b0" class="er entityLabel">__EFMigrationsHistory</text><rect height="21" width="35.245819091796875" y="24" x="0" class="er attributeBoxOdd"></rect><text style="dominant-baseline: middle; font-size: 10.2px;" transform="translate(5,34.5)" y="0" x="0" id="text-entity-EFMigrationsHistory-ecc788db-892f-5eca-8792-83d03ed1a2b0-attr-1-type" class="er entityLabel">string</text><rect height="21" width="79.09375" y="24" x="35.245819091796875" class="er attributeBoxOdd"></rect><text style="dominant-baseline: middle; font-size: 10.2px;" transform="translate(40.245819091796875,34.5)" y="0" x="0" id="text-entity-EFMigrationsHistory-ecc788db-892f-5eca-8792-83d03ed1a2b0-attr-1-name" class="er entityLabel">MigrationId</text><rect height="21" width="60.53028869628906" y="24" x="114.33956909179688" class="er attributeBoxOdd"></rect><text style="dominant-baseline: middle; font-size: 10.2px;" transform="translate(119.33956909179688,34.5)" y="0" x="0" id="text-entity-EFMigrationsHistory-ecc788db-892f-5eca-8792-83d03ed1a2b0-attr-1-comment" class="er entityLabel">NOT NULL</text><rect height="21" width="35.245819091796875" y="45" x="0" class="er attributeBoxEven"></rect><text style="dominant-baseline: middle; font-size: 10.2px;" transform="translate(5,55.5)" y="0" x="0" id="text-entity-EFMigrationsHistory-ecc788db-892f-5eca-8792-83d03ed1a2b0-attr-2-type" class="er entityLabel">string</text><rect height="21" width="79.09375" y="45" x="35.245819091796875" class="er attributeBoxEven"></rect><text style="dominant-baseline: middle; font-size: 10.2px;" transform="translate(40.245819091796875,55.5)" y="0" x="0" id="text-entity-EFMigrationsHistory-ecc788db-892f-5eca-8792-83d03ed1a2b0-attr-2-name" class="er entityLabel">ProductVersion</text><rect height="21" width="60.53028869628906" y="45" x="114.33956909179688" class="er attributeBoxEven"></rect><text style="dominant-baseline: middle; font-size: 10.2px;" transform="translate(119.33956909179688,55.5)" y="0" x="0" id="text-entity-EFMigrationsHistory-ecc788db-892f-5eca-8792-83d03ed1a2b0-attr-2-comment" class="er entityLabel">NOT NULL</text></g><rect height="14" width="44.703125" y="456.2657165527344" x="1.3006782531738281" class="er relationshipLabelBox"></rect><text style="text-anchor: middle; dominant-baseline: middle; font-size: 12px;" y="463.2657165527344" x="23.652240753173828" id="rel1" class="er relationshipLabel">BidderId</text><rect height="14" width="33.359375" y="220.23687744140625" x="285.6505126953125" class="er relationshipLabelBox"></rect><text style="text-anchor: middle; dominant-baseline: middle; font-size: 12px;" y="227.23687744140625" x="302.3302001953125" id="rel2" class="er relationshipLabel">ItemId</text><rect height="14" width="33.359375" y="208.87562561035156" x="450.3438720703125" class="er relationshipLabelBox"></rect><text style="text-anchor: middle; dominant-baseline: middle; font-size: 12px;" y="215.87562561035156" x="467.0235595703125" id="rel3" class="er relationshipLabel">ItemId</text><rect height="14" width="35.34375" y="358.7654113769531" x="173.7912139892578" class="er relationshipLabelBox"></rect><text style="text-anchor: middle; dominant-baseline: middle; font-size: 12px;" y="365.7654113769531" x="191.4630889892578" id="rel4" class="er relationshipLabel">UserId</text><rect height="14" width="40.6875" y="512.9735717773438" x="476.48980712890625" class="er relationshipLabelBox"></rect><text style="text-anchor: middle; dominant-baseline: middle; font-size: 12px;" y="519.9735717773438" x="496.83355712890625" id="rel5" class="er relationshipLabel">SellerId</text><rect height="14" width="33.359375" y="205.59854125976562" x="564.6246337890625" class="er relationshipLabelBox"></rect><text style="text-anchor: middle; dominant-baseline: middle; font-size: 12px;" y="212.59854125976562" x="581.3043212890625" id="rel6" class="er relationshipLabel">ItemId</text><rect height="14" width="41.359375" y="442.5239562988281" x="683.2951049804688" class="er relationshipLabelBox"></rect><text style="text-anchor: middle; dominant-baseline: middle; font-size: 12px;" y="449.5239562988281" x="703.9747924804688" id="rel7" class="er relationshipLabel">PayerId</text></g></svg>